<svg width="59" height="67" viewBox="0 0 59 67" fill="none" xmlns="http://www.w3.org/2000/svg">
<path d="M29.4987 39.0833C35.6571 39.0833 40.6654 34.0751 40.6654 27.9167C40.6654 21.7582 35.6571 16.75 29.4987 16.75C23.3403 16.75 18.332 21.7582 18.332 27.9167C18.332 34.0751 23.3403 39.0833 29.4987 39.0833ZM29.4987 22.3333C32.5779 22.3333 35.082 24.8375 35.082 27.9167C35.082 30.9959 32.5779 33.5 29.4987 33.5C26.4195 33.5 23.9154 30.9959 23.9154 27.9167C23.9154 24.8375 26.4195 22.3333 29.4987 22.3333Z" fill="#FF3704"/>
<path d="M27.8824 60.8976C28.3549 61.235 28.921 61.4164 29.5015 61.4164C30.0821 61.4164 30.6482 61.235 31.1207 60.8976C31.9694 60.2974 51.9158 45.8952 51.8349 27.9168C51.8349 15.6028 41.8156 5.5835 29.5015 5.5835C17.1875 5.5835 7.16821 15.6028 7.16821 27.9029C7.08726 45.8952 27.0337 60.2974 27.8824 60.8976ZM29.5015 11.1668C38.7392 11.1668 46.2516 18.6792 46.2516 27.9308C46.3102 40.3202 34.0017 51.445 29.5015 55.0937C25.0042 51.4422 12.6929 40.3146 12.7515 27.9168C12.7515 18.6792 20.2639 11.1668 29.5015 11.1668Z" fill="#FF3704"/>
</svg>
