<svg width="50" height="37" viewBox="0 0 50 37" fill="none" xmlns="http://www.w3.org/2000/svg">
<path d="M48.2143 0H1.78571C0.797991 0 0 0.751562 0 1.68182V35.3182C0 36.2484 0.797991 37 1.78571 37H48.2143C49.202 37 50 36.2484 50 35.3182V1.68182C50 0.751562 49.202 0 48.2143 0ZM45.9821 5.82329V33.2159H4.01786V5.82329L2.47768 4.69332L4.67076 2.0392L7.05915 3.78935H42.9464L45.3348 2.0392L47.5279 4.69332L45.9821 5.82329ZM42.9464 3.78409L25 16.9233L7.05357 3.78409L4.66518 2.03395L2.4721 4.68807L4.01228 5.81804L23.0748 19.7771C23.623 20.1782 24.2974 20.396 24.9916 20.396C25.6858 20.396 26.3603 20.1782 26.9085 19.7771L45.9821 5.82329L47.5223 4.69332L45.3292 2.0392L42.9464 3.78409Z" fill="#FF3704"/>
</svg>
