<svg width="42" height="42" viewBox="0 0 42 42" fill="none" xmlns="http://www.w3.org/2000/svg">
<path fill-rule="evenodd" clip-rule="evenodd" d="M11.1043 5.03929C10.7404 4.67539 10.1504 4.67539 9.78648 5.03929L6.63313 8.19265C4.5533 10.2725 3.98142 13.4247 5.19871 16.1026C9.40928 25.3657 16.8335 32.7898 26.0961 37C28.7739 38.2173 31.9262 37.6458 34.0061 35.5656L37.1594 32.4122C37.5237 32.0483 37.5237 31.4582 37.1594 31.0944L32.9178 26.8523C32.6339 26.5689 32.201 26.4983 31.842 26.6782L29.4878 27.8549C26.8069 29.1955 23.5685 28.6699 21.4493 26.5502L15.6484 20.7493C13.5287 18.6301 13.0032 15.3917 14.3437 12.7108L15.5208 10.3566C15.7003 9.99801 15.6297 9.56466 15.3463 9.28084L11.1043 5.03929ZM7.3822 2.63501C9.07384 0.94336 11.817 0.94336 13.5086 2.63501L17.7503 6.87704C19.0689 8.19527 19.3957 10.2095 18.5619 11.8773L17.3849 14.2314C16.6988 15.6036 16.9678 17.2607 18.0523 18.3452L23.8536 24.1465C24.9381 25.231 26.5953 25.5001 27.9674 24.814L30.3216 23.6369C31.9893 22.8032 34.0035 23.1299 35.3218 24.4486L39.5639 28.6902C41.2555 30.3823 41.2555 33.125 39.5639 34.8167L36.4105 37.97C33.3284 41.0521 28.6576 41.899 24.6892 40.0954C14.6777 35.5444 6.65368 27.5212 2.10351 17.5097C0.299953 13.5416 1.14687 8.87076 4.2289 5.78842L7.3822 2.63501Z" fill="#FF3704" stroke="#FF3704"/>
</svg>
