<svg width="45" height="45" viewBox="0 0 45 45" fill="none" xmlns="http://www.w3.org/2000/svg">
<circle cx="22.5" cy="22.5" r="22.5" fill="#C4C4C4"/>
<path d="M23 12C17.48 12 13 16.48 13 22C13 27.52 17.48 32 23 32C28.52 32 33 27.52 33 22C33 16.48 28.52 12 23 12ZM23 15C24.66 15 26 16.34 26 18C26 19.66 24.66 21 23 21C21.34 21 20 19.66 20 18C20 16.34 21.34 15 23 15ZM23 29.2C21.8119 29.2 20.6422 28.906 19.5953 28.3441C18.5484 27.7823 17.6568 26.9701 17 25.98C17.03 23.99 21 22.9 23 22.9C24.99 22.9 28.97 23.99 29 25.98C28.3432 26.9701 27.4516 27.7823 26.4047 28.3441C25.3578 28.906 24.1881 29.2 23 29.2Z" fill="black"/>
</svg>
